<svg xmlns="http://www.w3.org/2000/svg" fill="currentColor" viewBox="0 0 10 10">
  <path fill-rule="evenodd" d="M0 5a5 5 0 1 1 10 0A5 5 0 0 1 0 5Zm5 1.054h.25c.1 0 .25-.102.25-.313 0-.177-.11-.285-.205-.308l-.884-.21c-.557-.13-.911-.647-.911-1.193 0-.584.408-1.125 1-1.213V2.58a.5.5 0 0 1 1 0v.25c.28.06.521.217.694.427a.5.5 0 0 1-.77.637.225.225 0 0 0-.174-.09h-.58c-.057 0-.17.063-.17.226 0 .135.084.208.142.222l.884.21c.594.14.974.692.974 1.28 0 .604-.406 1.163-1 1.287v.25a.5.5 0 0 1-1 0v-.25a1.255 1.255 0 0 1-.814-.597.5.5 0 0 1 .862-.507c.054.091.133.13.202.13H5Z"/>
</svg>