<svg xmlns="http://www.w3.org/2000/svg" fill="currentColor" viewBox="0 0 10 10">
  <path d="M4.264.085A3.5 3.5 0 0 0 1.213 6.15a1.63 1.63 0 0 1 .223-.279L2.85 4.46a1.625 1.625 0 0 1 2.198-.093A1.625 1.625 0 0 1 7.72 5.608v.743c.314.041.619.174.87.4l.028-.015a2.5 2.5 0 0 0-1.9-4.61A3.5 3.5 0 0 0 4.264.085ZM4.237 5.03a.625.625 0 0 1 .386.578v3.767a.625.625 0 0 1-1.25 0V7.117l-.346.345a.625.625 0 1 1-.883-.884l1.412-1.412a.625.625 0 0 1 .681-.136Zm2.483.578v2.258l.346-.346a.625.625 0 0 1 .884.884L6.537 9.817a.625.625 0 0 1-1.067-.442V5.608a.625.625 0 0 1 1.25 0Z"/>
</svg>