<svg xmlns="http://www.w3.org/2000/svg" viewBox="0 0 400 400">
  <g fill="#f1f1f1" stroke="#f1f1f1" stroke-width="2" vector-effect="non-scaling-stroke">
    <path d="M199.01 49.46q-1.54 54.32-21.19 104.99c-5.14 13.25-10.58 26.58-13.75 40.34q-.76 3.3-1.83 11.47-.77 5.81-.64 11.12c.65 27.12 11.6 53.64 28.61 75.13q.13.17.31.05l.21-.14q.05-.03.02-.08-8.69-15.16-11.78-34.67-5.09-32.09 2.43-61.48 2.3-8.99 4.91-18.22c6.93-24.52 11.1-49.58 12.95-75.82 1.22-17.25.81-35.83-.08-52.73q0-.07-.06-.06-.1 0-.1.1"/>
    <path d="M207.74 92.78c-2.84-14.7-3.9-28.13-4.6-43.58q-.02-.07-.08-.07-.05 0-.06.03-.03.05-.03.11-.93 26.74.44 53.46c1 19.24 4.42 40.61 9.14 57.73q5.03 18.22 9.53 35.03c8.62 32.28 6.26 67.84-10.17 97.15q-.08.15.06.25l.24.17q.05.03.1-.02c24.23-30.65 35.5-65.75 25.5-103.37-3.2-12.01-8.22-23.57-12.56-35.25q-11.63-31.25-17.5-61.64"/>
    <path d="M201.98 135.05c.06-1.8.44-3.65.18-5.46q-.1-.74-.14.01-.18 4.32-.56 8.55-.39 4.26-.45 8.45-.22 14.02-.6 27.25c-.5 16.54-1.75 29.3-4.78 43a62.42 62.42 0 0 0 4.46 39.98q.72 1.57 1.5.02 6.5-12.92 6.7-26.18.07-5.93-2.22-17.44-1.63-8.2-2.37-17.06c-1.56-18.93-2.46-40.14-1.72-61.12"/>
    <path d="M384.7 267.06c1.5-.5 3.16-.86 4.7-1.24q.05-.01.08-.05.05-.03.02-.08-.05-.08-.14-.06-10.82 1.9-22.32 4.93-27.48 7.23-54 17.83-19.02 7.59-38.66 15.78c-7.27 3.03-14.69 5.58-21.9 8.24q-35.54 13.15-70.77 20.68-32.52 6.96-57.08 9.92-3.66.44-7.55.68-.15.01-.15.17l.01.1q.03.15.2.16 6.83.54 17.91.57c41.48.08 81.12-5.75 118.83-21.28 20.25-8.35 39.93-18.14 59.4-27.49q35.15-16.88 71.41-28.86"/>
    <path d="M10.5 350.67v.01q.03.21.24.17 1.16-.18 2.34-.31 49.95-5.46 96.97-12.85 30.73-4.83 65.33-12.96 52.32-12.29 100.5-33.55.18-.09.11-.28v-.01q-.06-.14-.2-.1c-32.05 10.35-64.2 19.53-96.59 26.65-30.95 6.8-60.24 11.47-90.22 16.62q-39.86 6.85-78.3 16.35-.22.05-.19.26"/>
  </g>
</svg>